<svg width="64" height="64" viewBox="0 0 40 40" xmlns="http://www.w3.org/2000/svg">
<defs>
<linearGradient id="p0_p4" x1="21.0222" y1="0.869542" x2="0.793185" y2="24.3292" gradientUnits="userSpaceOnUse">
<stop stop-color="#054AFF"/><stop offset="1" stop-color="#39A6FF"/>
</linearGradient>
<linearGradient id="p1_p4" x1="19.9283" y1="-1.12688e-07" x2="23.4752" y2="29.5577" gradientUnits="userSpaceOnUse">
<stop stop-color="#31FF68"/><stop offset="1" stop-color="#018839"/>
</linearGradient>
<linearGradient id="p2_p4" x1="19.9283" y1="0" x2="19.9283" y2="29.4881" gradientUnits="userSpaceOnUse">
<stop stop-color="#00EB76"/><stop offset="1" stop-color="#058D4E"/>
</linearGradient>
<radialGradient id="p3_p4" cx="0" cy="0" r="1" gradientTransform="matrix(20 23.9123 -23.913 19.9994 15.3708 8.69611)" gradientUnits="userSpaceOnUse">
<stop offset="0.211538" stop-color="#E60000"/><stop offset="1" stop-color="#FF5111"/>
</radialGradient>
<linearGradient id="p4_p4" x1="39.9914" y1="14.7784" x2="11.2084" y2="23.3205" gradientUnits="userSpaceOnUse">
<stop stop-color="#FFF700"/><stop offset="1" stop-color="#FFA600"/>
</linearGradient>
<radialGradient id="glow_p4" cx="50%" cy="50%" r="50%">
<stop offset="0%" stop-color="#FFD600" stop-opacity="0.8"/>
<stop offset="45%" stop-color="#FF6D00" stop-opacity="0.55"/>
<stop offset="100%" stop-color="#FF6D00" stop-opacity="0"/>
</radialGradient>
</defs>
<!-- Glow co dinh (khong nhay theo icon) - lam "diem sang" tham chieu cho cu nhay. -->
<circle cx="20" cy="20" r="25" fill="url(#glow_p4)"/>
<circle cx="20" cy="20" r="24" fill="none" stroke="#FFC400" stroke-width="1.8" opacity="0.65"/>
<!-- Frame 4/4 cua cu nhay: icon lun XUONG duoi vi tri nghi (offset y = +4) truoc khi lap lai tu frame 1. -->
<g transform="translate(0,4)">
<path d="M27.5851 12.4046C25.8898 9.36191 23.2208 6.94514 19.9955 5.58027C18.1263 4.78916 16.0659 4.35449 13.9099 4.35449C11.154 4.35449 8.56328 5.07605 6.32031 6.3279C5.57265 6.74519 4.87716 7.21463 4.20774 7.74493C1.57356 11.118 0 15.3691 0 19.994C0 24.6189 1.57356 28.87 4.20774 32.2604C5.2336 33.5731 6.41594 34.7554 7.72869 35.7813C7.20707 35.1206 6.72891 34.4164 6.31162 33.6688C5.05973 31.4172 4.33815 28.8352 4.33815 26.0794C4.33815 23.9234 4.77283 21.8631 5.56396 19.994C6.92887 16.76 9.35441 14.0911 12.3885 12.4046C14.3707 11.3005 16.6136 10.6312 19.0044 10.4834C19.3 10.4573 19.6043 10.4399 19.9172 10.4399C19.9433 10.4399 19.9607 10.4399 19.9868 10.4399C20.3171 10.4399 20.6475 10.4573 20.9692 10.4921C25.7942 10.9789 29.5498 15.0561 29.5498 20.0027C29.5498 17.2469 28.8283 14.6562 27.5764 12.4133L27.5851 12.4046Z" fill="url(#p0_p4)"/>
<path d="M33.673 6.32013C33.2557 5.58119 32.7863 4.87702 32.256 4.20762C28.8741 1.57351 24.6229 0 19.9979 0C15.3728 0 11.1216 1.57351 7.73109 4.20762C6.41834 5.23345 5.236 6.41576 4.21014 7.72847C4.87086 7.20686 5.57505 6.72872 6.32271 6.31144C8.57437 5.05958 11.1564 4.33803 13.9123 4.33803C16.0683 4.33803 18.1287 4.7727 19.9979 5.5638C23.2319 6.92867 25.9009 9.35414 27.5875 12.3882C28.8394 14.6398 29.5609 17.2217 29.5609 19.9775C29.5609 24.9328 25.7966 29.0013 20.9803 29.4881C23.371 29.3404 25.614 28.671 27.5962 27.5669C30.6389 25.8717 33.0558 23.2028 34.4207 19.9775C35.2118 18.1084 35.6465 16.0481 35.6465 13.8921C35.6465 11.1363 34.9249 8.54565 33.673 6.30274V6.32013Z" fill="url(#p1_p4)"/>
<path d="M33.673 6.32013C33.2557 5.58119 32.7863 4.87702 32.256 4.20762C28.8741 1.57351 24.6229 0 19.9979 0C15.3728 0 11.1216 1.57351 7.73109 4.20762C6.41834 5.23345 5.236 6.41576 4.21014 7.72847C4.87086 7.20686 5.57505 6.72872 6.32271 6.31144C8.57437 5.05958 11.1564 4.33803 13.9123 4.33803C16.0683 4.33803 18.1287 4.7727 19.9979 5.5638C23.2319 6.92867 25.9009 9.35414 27.5875 12.3882C28.8394 14.6398 29.5609 17.2217 29.5609 19.9775C29.5609 24.9328 25.7966 29.0013 20.9803 29.4881C23.371 29.3404 25.614 28.671 27.5962 27.5669C30.6389 25.8717 33.0558 23.2028 34.4207 19.9775C35.2118 18.1084 35.6465 16.0481 35.6465 13.8921C35.6465 11.1363 34.9249 8.54565 33.673 6.30274V6.32013Z" fill="url(#p2_p4)"/>
<path d="M33.6714 33.6713C31.4197 34.9232 28.8377 35.6448 26.0818 35.6448C23.9258 35.6448 21.8654 35.2101 19.9962 34.419C16.7622 33.0541 14.0932 30.6286 12.4066 27.5946C11.1548 25.343 10.4332 22.7611 10.4332 20.0053C10.4332 15.05 14.1975 10.9815 19.0138 10.4946C16.6231 10.6424 14.3801 11.3118 12.3979 12.4159C9.35516 14.1111 6.93831 16.78 5.5734 20.0053C4.78228 21.8743 4.3476 23.9347 4.3476 26.0907C4.3476 28.8465 5.06917 31.4371 6.32106 33.68C6.73836 34.4277 7.20782 35.1231 7.73813 35.7925C11.1287 38.4266 15.3799 40.0002 20.0049 40.0002C24.63 40.0002 28.8812 38.4266 32.2717 35.7925C33.5845 34.7667 34.7755 33.5844 35.7927 32.2717C35.1319 32.7933 34.4277 33.2714 33.6801 33.6887L33.6714 33.6713Z" fill="url(#p3_p4)"/>
<path d="M35.7836 7.72787C34.7578 6.41516 33.5754 5.23286 32.2627 4.20703C32.7843 4.86773 33.2625 5.5719 33.6798 6.31954C34.9316 8.57114 35.6532 11.1531 35.6532 13.9089C35.6532 16.0649 35.2185 18.1252 34.4274 19.9943C33.0625 23.2283 30.637 25.8972 27.6029 27.5837C25.6207 28.6878 23.3777 29.3571 20.987 29.5049C20.6653 29.5397 20.3349 29.5571 20.0046 29.5571C19.6742 29.5571 19.3439 29.5397 19.0222 29.5049C14.1972 29.0181 10.4415 24.9409 10.4415 19.9943C10.4415 22.7501 11.1631 25.3408 12.415 27.5837C14.1103 30.6264 16.7792 33.0432 20.0046 34.408C21.8737 35.1991 23.9341 35.6338 26.0902 35.6338C28.8461 35.6338 31.4368 34.9123 33.6798 33.6604C34.4274 33.2431 35.1229 32.7737 35.7923 32.2434C38.4265 28.8529 40.0001 24.6018 40.0001 19.9769C40.0001 15.352 38.4265 11.1009 35.7923 7.71049L35.7836 7.72787Z" fill="url(#p4_p4)"/>
<circle cx="20" cy="20.5" r="8.3" fill="#12213F"/>
<path d="M16.3,25.3 L16.3,15.7 L20.0,20.6 L23.7,15.7 L23.7,25.3" fill="none" stroke="#FFFFFF" stroke-width="3.0" stroke-linecap="round" stroke-linejoin="round"/>
</g>
</svg>
